<svg width="30" height="33" viewBox="0 0 30 33" fill="none" xmlns="http://www.w3.org/2000/svg">
<path fill-rule="evenodd" clip-rule="evenodd" d="M12 14C9.23858 14 7 16.2386 7 19V27H17V19C17 16.2386 14.7614 14 12 14ZM19 27V19C19 15.134 15.866 12 12 12C8.13401 12 5 15.134 5 19V27H4C3.44772 27 3 27.4477 3 28C3 28.5523 3.44772 29 4 29H20C20.5523 29 21 28.5523 21 28C21 27.4477 20.5523 27 20 27H19Z" fill="#626D7D"/>
<path fill-rule="evenodd" clip-rule="evenodd" d="M14 31C14 31.5523 13.5523 32 13 32L11 32C10.4477 32 10 31.5523 10 31C10 30.4477 10.4477 30 11 30L13 30C13.5523 30 14 30.4477 14 31Z" fill="#626D7D"/>
<path fill-rule="evenodd" clip-rule="evenodd" d="M10 12C10 10.8954 10.8954 10 12 10C13.1046 10 14 10.8954 14 12C14 13.1046 13.1046 14 12 14C10.8954 14 10 13.1046 10 12Z" fill="#626D7D"/>
<rect x="14" width="16" height="16" rx="8" fill="#FF2525"/>
<path d="M23.3073 4.72727V12H21.7696V6.18679H21.727L20.0615 7.23082V5.86719L21.8619 4.72727H23.3073Z" fill="white"/>
</svg>
