<svg width="24" height="24" viewBox="0 0 24 24" fill="none" xmlns="http://www.w3.org/2000/svg">
<path fill-rule="evenodd" clip-rule="evenodd" d="M1 21C1 20.4477 1.44772 20 2 20L22 20C22.5523 20 23 20.4477 23 21C23 21.5523 22.5523 22 22 22L2 22C1.44772 22 1 21.5523 1 21Z" fill="#626D7D"/>
<path fill-rule="evenodd" clip-rule="evenodd" d="M4 9C4.55228 9 5 9.44772 5 10V21C5 21.5523 4.55228 22 4 22C3.44772 22 3 21.5523 3 21V10C3 9.44772 3.44772 9 4 9Z" fill="#626D7D"/>
<path fill-rule="evenodd" clip-rule="evenodd" d="M20 9C20.5523 9 21 9.44772 21 10V21C21 21.5523 20.5523 22 20 22C19.4477 22 19 21.5523 19 21V10C19 9.44772 19.4477 9 20 9Z" fill="#626D7D"/>
<path fill-rule="evenodd" clip-rule="evenodd" d="M5.13242 4C4.78116 4 4.45565 4.1843 4.27493 4.4855L2.79938 6.94475C2.53283 7.389 2.64971 7.96326 3.0687 8.26798L3.16187 8.33574C3.51252 8.59076 3.98756 8.59076 4.33821 8.33574L5.91187 7.19126C6.26252 6.93625 6.73756 6.93625 7.08821 7.19126L8.66187 8.33574C9.01252 8.59076 9.48756 8.59076 9.83821 8.33574L11.4119 7.19126C11.7625 6.93625 12.2376 6.93625 12.5882 7.19126L14.1619 8.33574C14.5125 8.59076 14.9876 8.59076 15.3382 8.33574L16.9119 7.19126C17.2625 6.93625 17.7376 6.93625 18.0882 7.19126L19.6619 8.33574C20.0125 8.59076 20.4876 8.59076 20.8382 8.33574L20.9314 8.26798C21.3504 7.96326 21.4672 7.389 21.2007 6.94475L19.7252 4.4855C19.5444 4.1843 19.2189 4 18.8677 4H5.13242ZM2.55994 3.45651C3.10211 2.5529 4.07863 2 5.13242 2H18.8677C19.9214 2 20.898 2.5529 21.4401 3.45651L22.9157 5.91576C23.7153 7.24851 23.3647 8.9713 22.1077 9.88546L22.0146 9.95321C20.9626 10.7183 19.5375 10.7183 18.4855 9.95321L17.5 9.2365L16.5146 9.95321C15.4626 10.7183 14.0375 10.7183 12.9855 9.95321L12 9.2365L11.0146 9.95321C9.9626 10.7183 8.53747 10.7183 7.48552 9.95321L6.50004 9.2365L5.51455 9.95321C4.4626 10.7183 3.03747 10.7183 1.98552 9.95321L1.89235 9.88546C0.635387 8.9713 0.284744 7.24851 1.08439 5.91576L2.55994 3.45651Z" fill="#626D7D"/>
<path fill-rule="evenodd" clip-rule="evenodd" d="M9 15C9 13.3431 10.3431 12 12 12C13.6569 12 15 13.3431 15 15V22H9V15ZM12 14C11.4477 14 11 14.4477 11 15V20H13V15C13 14.4477 12.5523 14 12 14Z" fill="#626D7D"/>
</svg>
