<svg width="62" height="24" viewBox="0 0 62 24" fill="none" xmlns="http://www.w3.org/2000/svg">
<path fill-rule="evenodd" clip-rule="evenodd" d="M0.6972 7.54553C0.767355 3.89746 3.53334 0.203979 8.3907 0.203979H35.2989C40.5401 0.203979 45.0248 0.219898 48.5815 0.644527C52.073 1.06138 55.3452 1.93314 57.6115 4.19935C61.6574 8.24505 62.6509 15.2545 57.6116 20.2938C56.4474 21.458 55.2002 22.3383 53.7043 22.9303C52.2453 23.5076 50.7091 23.7466 49.0671 23.8464C47.4451 23.9451 45.5515 23.9148 43.361 23.867C43.0746 23.8607 42.7817 23.8541 42.4819 23.8473C40.4511 23.8016 38.1016 23.7487 35.2989 23.7487H32.2717V9.2855H38.3261V17.7137C39.9225 17.7337 41.3491 17.7659 42.623 17.7946C42.9213 17.8014 43.2113 17.8079 43.4931 17.814C45.7282 17.8628 47.3697 17.8842 48.6996 17.8033C50.0095 17.7236 50.8422 17.5517 51.4766 17.3007C52.0741 17.0642 52.6447 16.6985 53.3305 16.0128C55.6909 13.6524 55.3393 10.4892 53.3306 8.48051C52.5696 7.71956 51.0528 7.03692 47.8637 6.65618C44.7397 6.28321 40.6521 6.25833 35.2989 6.25833H8.3907C7.65625 6.25833 7.30661 6.50031 7.12692 6.68844C6.90802 6.91763 6.75802 7.26719 6.75043 7.66194C6.7429 8.05351 6.87575 8.35277 7.04638 8.53385C7.17994 8.67559 7.52408 8.94914 8.3907 8.94914H22.1812C24.5868 8.94914 26.6863 9.70702 28.2001 11.1558C29.7002 12.5915 30.4156 14.5136 30.3792 16.4071C30.3035 20.3454 27.0888 23.7487 22.1812 23.7487H2.00001V17.6943H22.1812C23.1817 17.6943 23.6913 17.3837 23.9327 17.1554C24.1965 16.9059 24.3202 16.5903 24.326 16.2907C24.3316 15.9979 24.2271 15.7337 24.014 15.5297C23.8144 15.3388 23.3073 15.0035 22.1812 15.0035H8.3907C6.06198 15.0035 4.05165 14.1839 2.64009 12.6859C1.2656 11.2273 0.662686 9.34025 0.6972 7.54553Z" fill="#6266EB"/>
</svg>
