<svg width="42" height="42" viewBox="0 0 42 42" fill="none" xmlns="http://www.w3.org/2000/svg">
<path d="M2.625 19.705C2.625 11.6534 2.625 7.62762 5.12631 5.12631C7.62762 2.625 11.6534 2.625 19.705 2.625H21.1283C29.18 2.625 33.2057 2.625 35.707 5.12631C38.2083 7.62762 38.2083 11.6534 38.2083 19.705V21.1283C38.2083 29.18 38.2083 33.2057 35.707 35.707C33.2057 38.2083 29.18 38.2083 21.1283 38.2083H19.705C11.6534 38.2083 7.62762 38.2083 5.12631 35.707C2.625 33.2057 2.625 29.18 2.625 21.1283V19.705Z" fill="white"/>
<path d="M32 20.8827C32 20.0987 31.9306 19.3544 31.8115 18.6299H20.597V23.1057H27.018C26.7302 24.5745 25.8867 25.815 24.6362 26.6586V29.6359H28.467C30.7099 27.5617 32 24.505 32 20.8827Z" fill="#4285F4"/>
<path d="M20.5971 32.5237C23.8125 32.5237 26.502 31.4518 28.467 29.6357L24.6363 26.6584C23.5644 27.373 22.2048 27.8096 20.5971 27.8096C17.4908 27.8096 14.8609 25.7156 13.9181 22.8872H9.9682V25.9538C11.9233 29.8441 15.9426 32.5237 20.5971 32.5237Z" fill="#34A853"/>
<path d="M13.918 22.8878C13.6699 22.1732 13.5409 21.4091 13.5409 20.6151C13.5409 19.8212 13.6798 19.057 13.918 18.3425V15.2759H9.96816C9.15437 16.8836 8.68793 18.6898 8.68793 20.6151C8.68793 22.5404 9.15437 24.3467 9.96816 25.9544L13.918 22.8878Z" fill="#FBBC05"/>
<path d="M20.5971 13.4196C22.3537 13.4196 23.9217 14.025 25.1622 15.206L28.5563 11.8119C26.502 9.88655 23.8125 8.70557 20.5971 8.70557C15.9426 8.70557 11.9233 11.3851 9.9682 15.2754L13.9181 18.342C14.8609 15.5136 17.4908 13.4196 20.5971 13.4196Z" fill="#EA4335"/>
</svg>
