<svg width="24" height="24" viewBox="0 0 24 24" fill="none" xmlns="http://www.w3.org/2000/svg">
<path fill-rule="evenodd" clip-rule="evenodd" d="M12 3.99994C7.58172 3.99994 4 7.58166 4 11.9999C4 16.4182 7.58172 19.9999 12 19.9999C16.4183 19.9999 20 16.4182 20 11.9999C20 7.58166 16.4183 3.99994 12 3.99994ZM2 11.9999C2 6.47709 6.47715 1.99994 12 1.99994C17.5228 1.99994 22 6.47709 22 11.9999C22 17.5228 17.5228 21.9999 12 21.9999C6.47715 21.9999 2 17.5228 2 11.9999Z" fill="#626D7D"/>
<path d="M13.5 15.9999C13.5 16.8284 12.8284 17.4999 12 17.4999C11.1716 17.4999 10.5 16.8284 10.5 15.9999C10.5 15.1715 11.1716 14.4999 12 14.4999C12.8284 14.4999 13.5 15.1715 13.5 15.9999Z" fill="#626D7D"/>
<path fill-rule="evenodd" clip-rule="evenodd" d="M12.7071 8.29295C12.5112 8.09705 12.2563 7.99961 11.9982 8.00006C11.7414 8.00051 11.4879 8.09793 11.2929 8.29295C10.9024 8.68347 10.2692 8.68347 9.87868 8.29295C9.48816 7.90243 9.48816 7.26926 9.87868 6.87874C10.4629 6.2945 11.2302 6.0014 11.9947 6.00006C12.7627 5.99871 13.5344 6.29179 14.1213 6.87874C14.7069 7.46433 15 8.23384 15 9.00006C15 9.76628 14.7069 10.5358 14.1213 11.1214C13.7939 11.4488 13.4091 11.6847 12.9994 11.8292L13 11.9965C13.0019 12.5488 12.5558 12.9981 12.0035 13.0001C11.4512 13.002 11.002 12.5559 11 12.0036L10.9965 11.0036C10.9955 10.7375 11.1007 10.4819 11.2887 10.2936C11.4768 10.1052 11.7321 9.99959 11.9982 10.0001C12.2563 10.0005 12.5112 9.90306 12.7071 9.70716C12.9026 9.51171 13 9.25753 13 9.00006C13 8.74259 12.9026 8.48841 12.7071 8.29295Z" fill="#626D7D"/>
</svg>
