<svg width="24" height="24" viewBox="0 0 24 24" fill="none" xmlns="http://www.w3.org/2000/svg">
<path fill-rule="evenodd" clip-rule="evenodd" d="M11.2929 1.29289C11.6834 0.902369 12.3166 0.902369 12.7071 1.29289L22.7071 11.2929C23.0976 11.6834 23.0976 12.3166 22.7071 12.7071C22.3166 13.0976 21.6834 13.0976 21.2929 12.7071L21 12.4142V18C21 19.6569 19.6569 21 18 21H6C4.34315 21 3 19.6569 3 18V12.4142L2.70711 12.7071C2.31658 13.0976 1.68342 13.0976 1.29289 12.7071C0.902369 12.3166 0.902369 11.6834 1.29289 11.2929L3.29254 9.29325C3.29277 9.29301 3.29301 9.29277 3.29325 9.29254L11.2929 1.29289ZM5 10.4142V18C5 18.5523 5.44772 19 6 19H18C18.5523 19 19 18.5523 19 18V10.4142L12 3.41421L5 10.4142Z" fill="#7F8A9B"/>
</svg>
