<svg width="60" height="25" viewBox="0 0 60 25" fill="none" xmlns="http://www.w3.org/2000/svg">
<path d="M0.37146 7.45882C0.37146 8.35896 0.792051 9.03701 1.63323 9.49298C2.47834 9.94502 3.56323 10.171 4.8879 10.171C6.21649 10.171 7.28959 9.93912 8.10719 9.47529C8.92478 9.01147 9.33162 8.33341 9.32769 7.44113C9.33162 6.59208 9.01912 5.95334 8.3902 5.52489C7.76128 5.0925 6.82772 4.76035 5.58954 4.52844C4.46927 4.32404 3.7637 4.1845 3.47283 4.10981C3.18195 4.03513 3.03651 3.8838 3.03651 3.65581C3.03651 3.44748 3.18195 3.28435 3.47283 3.16643C3.7637 3.04851 4.21377 2.98955 4.82304 2.98955C5.43624 2.98955 5.8981 3.07799 6.20863 3.25487C6.51916 3.42783 6.67443 3.65581 6.67443 3.93883V4.11571H9.11542V3.91524C9.11936 3.14874 8.72628 2.51196 7.9362 2.00489C7.15005 1.49783 6.11036 1.24429 4.81714 1.24429C3.51606 1.24429 2.47441 1.48014 1.69219 1.95183C0.909973 2.42352 0.518863 3.06816 0.518863 3.88576C0.522794 4.6444 0.821531 5.23991 1.41508 5.67229C2.01255 6.10074 2.93431 6.41717 4.18036 6.62157C5.40283 6.83383 6.1477 6.99302 6.415 7.09915C6.68622 7.20528 6.82183 7.40182 6.82183 7.68877C6.82183 7.91675 6.65477 8.09756 6.32066 8.23121C5.98654 8.36486 5.50503 8.43168 4.87611 8.43168C4.25112 8.43168 3.76174 8.34913 3.40797 8.18404C3.05813 8.01502 2.88321 7.76345 2.88321 7.42934V7.24656H0.37146V7.45882Z" fill="black"/>
<path d="M10.2888 6.71001C10.2888 7.9364 10.5718 8.81296 11.1378 9.33968C11.7078 9.86247 12.433 10.1239 13.3135 10.1239C13.9188 10.1239 14.4652 10.0413 14.9526 9.87623C15.4439 9.71114 15.8488 9.42616 16.1672 9.02129L16.2203 10H18.5021V3.64991H16.1436V7.335C15.9471 7.6298 15.6837 7.88137 15.3535 8.0897C15.0273 8.2941 14.6558 8.3963 14.2392 8.3963C13.7557 8.3963 13.3685 8.28034 13.0776 8.04843C12.7907 7.81258 12.6472 7.39199 12.6472 6.78666V3.64991H10.2888V6.71001Z" fill="black"/>
<path d="M19.9112 12.4528H22.2697V9.28072C22.5095 9.55587 22.879 9.7642 23.3782 9.90571C23.8813 10.0472 24.4395 10.118 25.0527 10.118C26.1415 10.118 27.0239 9.83103 27.7 9.25714C28.3801 8.67932 28.7201 7.89906 28.7201 6.91637V6.7277C28.7201 5.74108 28.3722 4.96082 27.6764 4.38693C26.9846 3.81304 26.0747 3.5261 24.9465 3.5261C24.3373 3.5261 23.7791 3.61257 23.272 3.78553C22.765 3.95455 22.4092 4.17664 22.2048 4.45179L22.1577 3.64991H19.9112V12.4528ZM22.2697 7.49419V6.1145C22.4269 5.87079 22.6785 5.66443 23.0244 5.4954C23.3742 5.32638 23.7968 5.24187 24.2921 5.24187C24.9682 5.24187 25.4713 5.348 25.8015 5.56026C26.1356 5.76859 26.3027 6.1145 26.3027 6.59798V7.04609C26.3027 7.52957 26.1356 7.87744 25.8015 8.0897C25.4713 8.30196 24.9721 8.40809 24.3039 8.40809C23.8282 8.40809 23.4037 8.31965 23.0303 8.14277C22.6608 7.96588 22.4073 7.74969 22.2697 7.49419Z" fill="black"/>
<path d="M29.805 12.4528H32.1634V9.28072C32.4032 9.55587 32.7727 9.7642 33.2719 9.90571C33.775 10.0472 34.3332 10.118 34.9464 10.118C36.0352 10.118 36.9177 9.83103 37.5937 9.25714C38.2738 8.67932 38.6138 7.89906 38.6138 6.91637V6.7277C38.6138 5.74108 38.2659 4.96082 37.5702 4.38693C36.8783 3.81304 35.9684 3.5261 34.8403 3.5261C34.231 3.5261 33.6728 3.61257 33.1657 3.78553C32.6587 3.95455 32.3029 4.17664 32.0985 4.45179L32.0514 3.64991H29.805V12.4528ZM32.1634 7.49419V6.1145C32.3206 5.87079 32.5722 5.66443 32.9181 5.4954C33.2679 5.32638 33.6905 5.24187 34.1858 5.24187C34.8619 5.24187 35.365 5.348 35.6952 5.56026C36.0293 5.76859 36.1964 6.1145 36.1964 6.59798V7.04609C36.1964 7.52957 36.0293 7.87744 35.6952 8.0897C35.365 8.30196 34.8658 8.40809 34.1976 8.40809C33.722 8.40809 33.2974 8.31965 32.924 8.14277C32.5545 7.96588 32.301 7.74969 32.1634 7.49419Z" fill="black"/>
<path d="M39.6869 10H42.0453V0.984863H39.6869V10Z" fill="black"/>
<path d="M43.6255 12.4469C43.7749 12.4941 43.9498 12.5295 44.1502 12.5531C44.3546 12.5767 44.5807 12.5885 44.8283 12.5885C45.5869 12.5885 46.2178 12.4273 46.721 12.105C47.228 11.7826 47.6427 11.3169 47.965 10.7076L51.8742 3.64991H49.616L47.741 7.04019C47.6624 7.18956 47.5956 7.34286 47.5405 7.50009C47.4894 7.65732 47.4383 7.83617 47.3872 8.03664H47.3636C47.3086 7.83617 47.2496 7.65535 47.1868 7.49419C47.1278 7.33303 47.059 7.1817 46.9804 7.04019L45.1585 3.64991H42.6055L46.1549 9.9234H46.3613C46.1372 10.4069 45.8916 10.6978 45.6243 10.796C45.3609 10.8982 45.0327 10.9493 44.6396 10.9493C44.4785 10.9493 44.3055 10.9356 44.1208 10.9081C43.9399 10.8845 43.7827 10.857 43.6491 10.8255L43.6255 12.4469Z" fill="black"/>
<path d="M0.860839 24H4.7346C6.24401 24 7.51364 23.6325 8.5435 22.8975C9.57336 22.1624 10.0883 21.1267 10.0883 19.7902V19.6251C10.0883 18.2847 9.57139 17.249 8.5376 16.5179C7.50775 15.7828 6.24008 15.4153 4.7346 15.4153H0.860839V24ZM3.27825 22.2784V17.1428H4.69333C5.5463 17.1428 6.24204 17.3433 6.78056 17.7443C7.323 18.1413 7.59422 18.7525 7.59422 19.5779V19.8374C7.59422 20.6628 7.323 21.276 6.78056 21.677C6.24204 22.0779 5.5463 22.2784 4.69333 22.2784H3.27825Z" fill="black"/>
<path d="M11.3088 24H13.6731V17.6499H11.3088V24ZM11.1437 16.0933C11.1437 16.4314 11.2597 16.7164 11.4916 16.9483C11.7235 17.1802 12.0556 17.2961 12.488 17.2961C12.9204 17.2961 13.2525 17.1822 13.4845 16.9542C13.7203 16.7223 13.8382 16.4353 13.8382 16.0933C13.8382 15.7553 13.7223 15.4723 13.4904 15.2443C13.2584 15.0124 12.9243 14.8964 12.488 14.8964C12.0556 14.8964 11.7235 15.0124 11.4916 15.2443C11.2597 15.4723 11.1437 15.7553 11.1437 16.0933Z" fill="black"/>
<path d="M15.0646 24H17.429V20.4683C17.5862 20.1813 17.8338 19.9474 18.1719 19.7666C18.5099 19.5819 18.8932 19.4895 19.3216 19.4895C19.4435 19.4895 19.5535 19.4954 19.6518 19.5072C19.754 19.5151 19.8582 19.5288 19.9643 19.5485V17.5615C19.9132 17.5458 19.8326 17.53 19.7226 17.5143C19.6125 17.4946 19.5005 17.4848 19.3865 17.4848C18.958 17.4848 18.5689 17.5831 18.2191 17.7796C17.8731 17.9722 17.6019 18.2022 17.4054 18.4695L17.3582 17.6499H15.0646V24Z" fill="black"/>
<path d="M20.436 20.9164C20.436 21.9069 20.8487 22.699 21.6742 23.2925C22.5036 23.8861 23.6297 24.1828 25.0527 24.1828C25.9489 24.1828 26.737 24.0669 27.417 23.835C28.101 23.5991 28.5786 23.263 28.8498 22.8267L27.1812 21.73C26.9728 21.9384 26.68 22.127 26.3027 22.2961C25.9292 22.4612 25.5008 22.5437 25.0173 22.5437C24.2822 22.5437 23.7142 22.414 23.3133 22.1546C22.9124 21.8951 22.7119 21.5237 22.7119 21.0402V20.598C22.7119 20.0948 22.8967 19.7116 23.2661 19.4482C23.6396 19.1849 24.1348 19.0532 24.752 19.0532C25.5185 19.0532 26.0432 19.1613 26.3262 19.3775C26.6132 19.5937 26.7567 19.8433 26.7567 20.1263V20.0968H22.0221V21.4352H29.0679V20.6275C29.0679 19.6369 28.6906 18.8645 27.9359 18.3103C27.1851 17.7521 26.1631 17.473 24.8699 17.473C23.5885 17.473 22.5291 17.7698 21.6919 18.3633C20.8546 18.953 20.436 19.7411 20.436 20.7277V20.9164Z" fill="black"/>
<path d="M29.687 20.9164C29.687 21.9384 30.1076 22.7383 30.9488 23.3161C31.79 23.89 32.8886 24.1769 34.2447 24.1769C35.5498 24.1769 36.56 23.9332 37.2754 23.4458C37.9947 22.9584 38.3543 22.3825 38.3543 21.7182V21.6062H36.0372V21.7065C36.0372 21.9226 35.8957 22.1133 35.6126 22.2784C35.3336 22.4395 34.8697 22.5201 34.2212 22.5201C33.5176 22.5201 32.9889 22.3963 32.6351 22.1487C32.2813 21.901 32.1044 21.5355 32.1044 21.052V20.598C32.1044 20.1145 32.2853 19.7489 32.6469 19.5013C33.0124 19.2537 33.5372 19.1298 34.2212 19.1298C34.8226 19.1298 35.2746 19.2026 35.5773 19.348C35.8799 19.4895 36.0332 19.6821 36.0372 19.9258V20.0437H38.3602L38.3484 19.8728C38.2934 19.2045 37.922 18.6385 37.2341 18.1747C36.5462 17.7069 35.5498 17.473 34.2447 17.473C32.8847 17.473 31.7841 17.76 30.9429 18.3339C30.1057 18.9038 29.687 19.7018 29.687 20.7277V20.9164Z" fill="black"/>
<path d="M38.5607 19.3185H43.9969V17.6499H38.5607V19.3185ZM39.8932 21.8362C39.8932 22.642 40.1389 23.2336 40.6302 23.6109C41.1255 23.9843 41.7741 24.171 42.576 24.171C42.8158 24.171 43.0418 24.1533 43.254 24.118C43.4702 24.0826 43.6314 24.0413 43.7375 23.9942V22.4081C43.6353 22.4395 43.5253 22.4671 43.4073 22.4906C43.2933 22.5142 43.1793 22.526 43.0654 22.526C42.8177 22.526 42.6172 22.4749 42.4639 22.3727C42.3146 22.2666 42.2399 22.072 42.2399 21.789V16.3351H39.8991V18.3221L39.8932 18.4931V21.8362Z" fill="black"/>
<path d="M44.4745 20.9164C44.4745 21.9266 44.903 22.7226 45.7599 23.3043C46.6207 23.8861 47.7292 24.1769 49.0853 24.1769C50.4375 24.1769 51.542 23.8861 52.3989 23.3043C53.2558 22.7226 53.6843 21.9266 53.6843 20.9164V20.7277C53.6843 19.7175 53.2558 18.9235 52.3989 18.3457C51.542 17.7639 50.4355 17.473 49.0794 17.473C47.7272 17.473 46.6207 17.7639 45.7599 18.3457C44.903 18.9235 44.4745 19.7175 44.4745 20.7277V20.9164ZM46.8919 20.598C46.8919 20.0831 47.0865 19.7195 47.4757 19.5072C47.8687 19.2949 48.4033 19.1888 49.0794 19.1888C49.7516 19.1888 50.2842 19.2949 50.6773 19.5072C51.0703 19.7195 51.2669 20.0831 51.2669 20.598V21.0461C51.2669 21.5649 51.0743 21.9305 50.6891 22.1428C50.3038 22.355 49.7673 22.4612 49.0794 22.4612C48.3955 22.4612 47.8589 22.355 47.4698 22.1428C47.0845 21.9305 46.8919 21.5669 46.8919 21.052V20.598Z" fill="black"/>
<path d="M54.7692 24H57.1335V20.4683C57.2908 20.1813 57.5384 19.9474 57.8764 19.7666C58.2145 19.5819 58.5977 19.4895 59.0262 19.4895C59.148 19.4895 59.2581 19.4954 59.3564 19.5072C59.4586 19.5151 59.5627 19.5288 59.6689 19.5485V17.5615C59.6178 17.5458 59.5372 17.53 59.4271 17.5143C59.3171 17.4946 59.205 17.4848 59.091 17.4848C58.6626 17.4848 58.2734 17.5831 57.9236 17.7796C57.5777 17.9722 57.3065 18.2022 57.1099 18.4695L57.0628 17.6499H54.7692V24Z" fill="black"/>
</svg>
