<svg width="24" height="11" viewBox="0 0 24 11" fill="none" xmlns="http://www.w3.org/2000/svg">
<path fill-rule="evenodd" clip-rule="evenodd" d="M0.000556482 3.59669C0.0284638 2.05792 1.12876 0.5 3.06098 0.5H13.7649C15.8498 0.5 17.6338 0.506715 19.0486 0.685825C20.4375 0.861656 21.7392 1.22937 22.6407 2.18526C24.2501 3.89175 24.6453 6.84836 22.6407 8.97398C22.1776 9.46503 21.6815 9.83635 21.0864 10.086C20.5061 10.3296 19.895 10.4304 19.2418 10.4725C18.5966 10.5141 17.8433 10.5013 16.9719 10.4811C16.858 10.4785 16.7415 10.4757 16.6222 10.4729C15.8144 10.4536 14.8798 10.4312 13.7649 10.4312H12.5607V4.33062H14.9691V7.88569C15.6041 7.89412 16.1716 7.90769 16.6784 7.9198C16.797 7.92264 16.9124 7.9254 17.0245 7.92799C17.9136 7.94857 18.5666 7.95757 19.0956 7.92344C19.6167 7.88983 19.9479 7.81734 20.2003 7.71145C20.4379 7.61171 20.6649 7.45747 20.9377 7.16821C21.8767 6.17258 21.7368 4.83833 20.9378 3.99107C20.635 3.6701 20.0317 3.38216 18.7631 3.22156C17.5204 3.06424 15.8943 3.05375 13.7649 3.05375H3.06098C2.76882 3.05375 2.62973 3.15582 2.55826 3.23517C2.47118 3.33184 2.41151 3.47929 2.40849 3.6458C2.40549 3.81096 2.45834 3.93719 2.52622 4.01357C2.57935 4.07336 2.71624 4.18874 3.06098 4.18874H8.54673C9.50366 4.18874 10.3389 4.50842 10.941 5.11951C11.5378 5.7251 11.8223 6.53586 11.8079 7.33454C11.7777 8.99572 10.4989 10.4312 8.54673 10.4312H0.518804V7.87749H8.54673C8.94474 7.87749 9.14744 7.74645 9.24349 7.65016C9.34843 7.54496 9.39763 7.41182 9.39992 7.28544C9.40216 7.16193 9.3606 7.0505 9.27581 6.96446C9.19643 6.88391 8.99469 6.74249 8.54673 6.74249H3.06098C2.13463 6.74249 1.33493 6.39678 0.773427 5.76493C0.226663 5.14967 -0.0131729 4.35372 0.000556482 3.59669Z" fill="#626D7D"/>
</svg>
