<svg width="42" height="42" viewBox="0 0 42 42" fill="none" xmlns="http://www.w3.org/2000/svg">
<path d="M2.91669 19.9965C2.91669 11.9449 2.91669 7.91912 5.418 5.41781C7.9193 2.9165 11.9451 2.9165 19.9967 2.9165H21.42C29.4716 2.9165 33.4974 2.9165 35.9987 5.41781C38.5 7.91912 38.5 11.9449 38.5 19.9965V21.4198C38.5 29.4715 38.5 33.4972 35.9987 35.9986C33.4974 38.4998 29.4716 38.4998 21.42 38.4998H19.9967C11.9451 38.4998 7.9193 38.4998 5.418 35.9986C2.91669 33.4972 2.91669 29.4715 2.91669 21.4198V19.9965Z" fill="white"/>
<path d="M21.85 28.5513C13.74 28.5513 9.11425 22.9914 8.92151 13.7397H12.9839C13.1174 20.5302 16.1122 23.4066 18.4845 23.9996V13.7397H22.3098V19.5962C24.6524 19.3441 27.1133 16.6754 27.9435 13.7397H31.7688C31.1313 17.3574 28.4625 20.0261 26.5648 21.1233C28.4625 22.0129 31.5021 24.3406 32.6586 28.5513H28.4477C27.5433 25.7343 25.2899 23.5548 22.3098 23.2583V28.5513H21.85Z" fill="#166BF8"/>
</svg>
