<svg width="42" height="42" viewBox="0 0 42 42" fill="none" xmlns="http://www.w3.org/2000/svg">
<path d="M3.9375 21.0175C3.9375 12.9659 3.9375 8.94012 6.43881 6.43881C8.94012 3.9375 12.9659 3.9375 21.0175 3.9375H22.4408C30.4925 3.9375 34.5182 3.9375 37.0195 6.43881C39.5208 8.94012 39.5208 12.9659 39.5208 21.0175V22.4408C39.5208 30.4925 39.5208 34.5182 37.0195 37.0195C34.5182 39.5208 30.4925 39.5208 22.4408 39.5208H21.0175C12.9659 39.5208 8.94012 39.5208 6.43881 37.0195C3.9375 34.5182 3.9375 30.4925 3.9375 22.4408V21.0175Z" fill="white"/>
<path d="M27.9448 32.7956H24.0471V13.518H22.3108C19.128 13.518 17.4609 15.1094 17.4609 17.4849C17.4609 20.18 18.6108 21.4287 20.9896 23.0201L22.95 24.3413L17.3159 32.7923H13.125L18.1956 25.2473C15.2798 23.165 13.639 21.1322 13.639 17.7023C13.639 13.4159 16.6273 10.5 22.2844 10.5H27.9184V32.789H27.9448V32.7956Z" fill="#F8364E"/>
</svg>
